<?xml version="1.0" encoding="utf-8"?>
<!-- Generator: Adobe Illustrator 16.0.0, SVG Export Plug-In . SVG Version: 6.00 Build 0)  -->
<!DOCTYPE svg PUBLIC "-//W3C//DTD SVG 1.1//EN" "http://www.w3.org/Graphics/SVG/1.1/DTD/svg11.dtd">
<svg version="1.1" xmlns="http://www.w3.org/2000/svg" xmlns:xlink="http://www.w3.org/1999/xlink" x="0px" y="0px" width="1349px"
	 height="537px" viewBox="0 0 1349 537" enable-background="new 0 0 1349 537" xml:space="preserve">
<g id="Rounded_Rectangle_48_1_" enable-background="new    ">
	<g id="Rounded_Rectangle_48">
		<g>
			<path fill-rule="evenodd" clip-rule="evenodd" fill="#2175FF" d="M1150.822,252.688c-5.165,0-9.816,2.162-13.126,5.617
				c0.092-0.995,0.143-2.003,0.143-3.023c0-17.189-13.37-31.125-29.863-31.125c-7.63,0-14.588,2.986-19.866,7.894
				c-6.137-15.266-21.083-26.05-38.561-26.05c-22.947,0-41.549,18.58-41.549,41.5c0,18.284,11.843,33.795,28.281,39.326
				c1.912,1.363,4.247,2.174,6.775,2.174h103.871c0.588,0,1.161-0.058,1.726-0.141c0.712,0.084,1.434,0.141,2.169,0.141
				c10.039,0,18.178-8.129,18.178-18.156S1160.861,252.688,1150.822,252.688z"/>
		</g>
	</g>
</g>
<g id="Rounded_Rectangle_48_copy_4_1_" opacity="0.2" enable-background="new    ">
	<g id="Rounded_Rectangle_48_copy_4">
		<g>
			<path fill-rule="evenodd" clip-rule="evenodd" fill="#2175FF" d="M1180.693,235.5c-3.498,0-6.648,1.46-8.89,3.793
				c0.063-0.673,0.1-1.354,0.1-2.043c0-11.599-9.052-21-20.218-21c-5.168,0-9.868,2.031-13.442,5.345
				c-4.15-10.31-14.274-17.595-26.114-17.595c-15.535,0-28.129,12.536-28.129,28c0,12.336,8.018,22.801,19.146,26.533
				c1.294,0.92,2.875,1.467,4.587,1.467h70.323c0.398,0,0.786-0.039,1.168-0.095c0.482,0.057,0.971,0.095,1.469,0.095
				c6.797,0,12.307-5.484,12.307-12.25S1187.49,235.5,1180.693,235.5z"/>
		</g>
	</g>
</g>
<g id="Rounded_Rectangle_48_copy_2_1_" opacity="0.2" enable-background="new    ">
	<g id="Rounded_Rectangle_48_copy_2">
		<g>
			<path fill-rule="evenodd" clip-rule="evenodd" fill="#2175FF" d="M1310.549,66.125c-4.107,0-7.806,1.72-10.437,4.467
				c0.073-0.792,0.113-1.593,0.113-2.405c0-13.669-10.63-24.75-23.742-24.75c-6.065,0-11.598,2.375-15.794,6.277
				C1255.811,37.575,1243.928,29,1230.032,29C1211.789,29,1197,43.774,1197,62c0,14.539,9.416,26.873,22.484,31.271
				c1.521,1.084,3.377,1.729,5.387,1.729h82.58c0.468,0,0.923-0.046,1.372-0.112c0.567,0.067,1.141,0.112,1.726,0.112
				c7.98,0,14.451-6.464,14.451-14.438S1318.529,66.125,1310.549,66.125z"/>
		</g>
	</g>
</g>
<g id="Rounded_Rectangle_48_copy_5_1_" opacity="0.502" enable-background="new    ">
	<g id="Rounded_Rectangle_48_copy_5">
		<g>
			<path fill-rule="evenodd" clip-rule="evenodd" fill="#2175FF" d="M180.548,475.125c-4.107,0-7.805,1.72-10.436,4.467
				c0.073-0.791,0.113-1.593,0.113-2.404c0-13.669-10.63-24.75-23.742-24.75c-6.066,0-11.598,2.375-15.794,6.276
				C125.811,446.575,113.927,438,100.032,438C81.789,438,67,452.774,67,471c0,14.539,9.416,26.873,22.484,31.271
				c1.52,1.084,3.376,1.729,5.387,1.729h82.58c0.467,0,0.923-0.046,1.372-0.112c0.566,0.067,1.14,0.112,1.725,0.112
				c7.981,0,14.452-6.464,14.452-14.438S188.529,475.125,180.548,475.125z"/>
		</g>
	</g>
</g>
<g id="Rounded_Rectangle_48_copy_1_" enable-background="new    ">
	<g id="Rounded_Rectangle_48_copy">
		<g>
			<path fill-rule="evenodd" clip-rule="evenodd" fill="#2175FF" d="M298.339,298.438c-3.883,0-7.379,1.642-9.866,4.266
				c0.069-0.756,0.107-1.521,0.107-2.297c0-13.048-10.048-23.625-22.443-23.625c-5.734,0-10.963,2.267-14.931,5.992
				C246.594,271.186,235.361,263,222.226,263C204.98,263,191,277.103,191,294.5c0,13.878,8.901,25.651,21.254,29.85
				c1.438,1.035,3.192,1.65,5.092,1.65h78.064c0.442,0,0.873-0.044,1.297-0.107c0.536,0.064,1.078,0.107,1.631,0.107
				c7.545,0,13.661-6.17,13.661-13.781S305.884,298.438,298.339,298.438z"/>
		</g>
	</g>
</g>
<g id="Rounded_Rectangle_48_copy_3_1_" opacity="0.502" enable-background="new    ">
	<g id="Rounded_Rectangle_48_copy_3">
		<g>
			<path fill-rule="evenodd" clip-rule="evenodd" fill="#2175FF" d="M336.339,287.438c-3.883,0-7.379,1.642-9.866,4.266
				c0.069-0.756,0.107-1.521,0.107-2.297c0-13.048-10.048-23.625-22.443-23.625c-5.734,0-10.963,2.267-14.931,5.992
				C284.594,260.186,273.361,252,260.226,252C242.98,252,229,266.103,229,283.5c0,13.878,8.901,25.651,21.254,29.85
				c1.438,1.035,3.192,1.65,5.092,1.65h78.064c0.442,0,0.873-0.044,1.297-0.107c0.536,0.064,1.078,0.107,1.631,0.107
				c7.545,0,13.661-6.17,13.661-13.781S343.884,287.438,336.339,287.438z"/>
		</g>
	</g>
</g>
<g id="Rounded_Rectangle_48_copy_6_1_" opacity="0.8" enable-background="new    ">
	<g id="Rounded_Rectangle_48_copy_6">
		<g>
			<path fill-rule="evenodd" clip-rule="evenodd" fill="#2175FF" d="M129.339,134.438c-3.882,0-7.378,1.641-9.865,4.264
				c0.069-0.755,0.107-1.521,0.107-2.295c0-13.048-10.048-23.625-22.443-23.625c-5.734,0-10.963,2.267-14.931,5.991
				C77.594,107.186,66.361,99,53.226,99C35.98,99,22,113.103,22,130.5c0,13.878,8.901,25.652,21.255,29.85
				c1.438,1.035,3.191,1.65,5.092,1.65h78.064c0.442,0,0.873-0.043,1.297-0.107c0.536,0.064,1.078,0.107,1.631,0.107
				c7.544,0,13.661-6.17,13.661-13.781S136.883,134.438,129.339,134.438z"/>
		</g>
	</g>
</g>
</svg>
